<?xml version="1.0" standalone="no"?>
<!DOCTYPE svg PUBLIC "-//W3C//DTD SVG 20010904//EN"
 "http://www.w3.org/TR/2001/REC-SVG-20010904/DTD/svg10.dtd">
<svg version="1.0" xmlns="http://www.w3.org/2000/svg"
 width="488.000000pt" height="488.000000pt" viewBox="0 0 488.000000 488.000000"
 preserveAspectRatio="xMidYMid meet">
<metadata>
Created by potrace 1.14, written by Peter Selinger 2001-2017
</metadata>
<g transform="translate(0.000000,488.000000) scale(0.100000,-0.100000)"
fill="#000000" stroke="none">
<path d="M1679 4162 c-81 -21 -107 -38 -113 -76 -8 -43 9 -64 65 -80 28 -9 61
-26 73 -40 29 -33 78 -47 156 -45 25 0 72 0 105 0 59 -1 61 -1 113 50 28 28
52 59 52 68 0 9 -22 39 -49 65 -44 43 -57 50 -108 58 -117 17 -225 17 -294 0z"/>
<path d="M2517 4025 c-28 -31 -47 -92 -47 -154 0 -45 -13 -54 -51 -35 -15 7
-37 15 -50 18 -13 2 -31 7 -40 11 -31 12 -33 -17 -3 -44 51 -46 104 -83 115
-79 6 2 27 -11 46 -30 25 -23 39 -30 46 -23 8 8 5 19 -9 38 -11 16 -23 36 -27
46 -6 17 -4 17 28 -3 27 -16 39 -19 54 -11 37 20 45 94 13 117 -13 9 -14 15
-5 26 12 14 6 38 -29 117 l-15 33 -26 -27z m-59 -260 c-3 -3 -9 2 -12 12 -6
14 -5 15 5 6 7 -7 10 -15 7 -18z"/>
<path d="M1090 3750 c-13 -18 -36 -34 -61 -40 -22 -6 -52 -24 -66 -40 -22 -25
-34 -30 -70 -30 -80 0 -118 -70 -76 -141 16 -28 43 -36 91 -30 19 3 42 -19 42
-39 0 -26 44 -75 81 -90 25 -11 43 -11 90 -1 54 11 62 10 101 -10 37 -19 61
-23 165 -25 l122 -2 26 34 c14 19 32 34 40 34 8 0 31 16 52 36 35 33 144 94
169 94 16 0 36 49 29 71 -5 16 -35 41 -137 117 -24 17 -44 22 -94 22 l-63 0
-27 -57 c-21 -44 -27 -71 -26 -113 3 -92 0 -96 -73 -115 -112 -31 -273 -5
-308 48 -29 46 -6 128 53 183 17 16 37 42 45 57 13 27 13 29 -18 47 -44 27
-62 25 -87 -10z"/>
<path d="M2233 3590 c-148 -41 -282 -138 -365 -264 -26 -39 -54 -81 -63 -93
-8 -12 -34 -27 -58 -33 -58 -15 -138 -50 -164 -73 -45 -39 -7 -117 57 -117 33
0 96 -25 106 -42 14 -22 20 -138 10 -178 -4 -14 -9 -47 -13 -73 -7 -54 -4 -54
-95 -22 -46 17 -78 15 -78 -3 0 -14 138 -114 149 -108 5 3 21 -7 34 -24 26
-30 57 -40 57 -19 0 7 -9 27 -21 45 -23 38 -21 40 21 19 16 -8 35 -12 42 -10
9 4 20 -5 28 -21 8 -15 46 -55 83 -90 l69 -64 -28 -11 c-16 -6 -30 -9 -30 -7
-1 2 -12 -6 -24 -17 l-22 -20 6 35 c4 19 10 43 12 53 4 11 0 17 -10 17 -19 0
-55 -67 -58 -109 -2 -23 -5 -28 -15 -19 -8 6 -11 13 -9 16 7 6 -24 65 -38 74
-20 13 -44 -51 -35 -91 4 -19 7 -36 6 -38 -2 -1 -13 18 -26 43 -24 45 -40 47
-44 5 -1 -11 -4 -21 -8 -21 -11 0 0 -75 17 -115 15 -38 8 -46 -17 -17 -24 26
-51 46 -80 59 -25 11 -27 10 -31 -18 -3 -16 -1 -32 4 -35 5 -3 0 -13 -10 -22
-10 -10 -21 -24 -25 -32 -3 -10 -6 -7 -6 8 -1 13 6 37 15 53 15 30 15 31 -5
24 -17 -5 -20 -3 -14 12 5 15 3 16 -8 6 -22 -21 -25 -15 -22 41 1 38 -3 58
-13 67 -8 6 -18 9 -21 5 -4 -4 -2 -10 4 -14 19 -12 19 -36 -1 -80 -18 -40 -20
-41 -37 -26 -10 9 -21 32 -25 51 -4 23 -11 33 -23 31 -10 -2 -17 5 -19 20 -2
12 -7 22 -11 22 -5 0 -16 -10 -24 -22 l-16 -23 -7 33 c-9 45 -31 54 -25 10 0
-6 -26 -86 -49 -143 -20 -52 -32 -14 -40 135 0 8 -13 -5 -28 -30 -18 -30 -33
-45 -44 -42 -11 2 -18 -5 -21 -20 -3 -16 -5 -12 -6 12 0 19 8 49 19 67 l19 32
-26 -10 c-21 -8 -24 -7 -19 6 4 11 1 15 -11 13 -13 -2 -16 6 -17 37 -1 28 -5
40 -16 40 -9 0 -14 8 -12 20 2 11 3 36 4 55 0 19 4 40 10 47 6 8 3 15 -11 22
-18 10 -19 13 -6 38 11 21 12 29 2 35 -9 6 -6 18 11 48 24 42 22 83 -2 74 -7
-3 -24 -24 -37 -47 l-23 -42 -10 55 c-9 52 -10 54 -16 23 -4 -18 -6 -53 -4
-78 5 -53 -4 -57 -30 -12 l-20 32 -6 -30 c-3 -16 -3 -40 2 -53 13 -39 8 -48
-12 -23 l-20 23 0 -40 c0 -22 -6 -45 -14 -51 -11 -9 -12 -2 -8 41 l5 51 -36
-27 c-20 -15 -38 -33 -40 -39 -3 -7 -2 7 0 30 6 47 -2 93 -17 93 -6 0 -10 -13
-10 -28 0 -42 -7 -43 -46 -6 -19 19 -38 34 -42 33 -16 -1 -46 -18 -34 -18 6
-1 12 -8 12 -16 0 -8 3 -15 8 -15 4 0 13 -10 21 -21 10 -17 10 -23 1 -29 -9
-6 -7 -13 8 -28 22 -22 19 -32 -10 -32 -21 0 -23 -11 -7 -27 9 -9 15 -8 26 3
19 19 34 18 26 -1 -4 -13 2 -15 41 -11 25 2 46 0 46 -5 0 -5 -3 -9 -7 -9 -5 0
-13 -11 -20 -25 -6 -15 -7 -25 -1 -25 5 0 6 -4 3 -10 -3 -5 -1 -10 4 -10 6 0
11 4 11 9 0 5 10 7 21 4 21 -6 21 -7 4 -20 -11 -7 -27 -13 -37 -13 -10 0 -18
-6 -18 -14 0 -22 -27 -26 -44 -7 -11 12 -13 20 -5 28 6 6 9 21 7 34 -4 30 -45
33 -62 6 -9 -15 -6 -22 16 -41 26 -20 37 -46 21 -46 -29 0 -83 23 -83 35 0 8
1 16 2 18 1 1 -4 12 -10 24 -8 15 -9 24 -2 28 11 7 4 94 -9 108 -4 4 -13 -28
-20 -70 -12 -72 -14 -76 -26 -53 l-13 25 -7 -38 c-4 -22 -13 -37 -22 -37 -8 0
-12 3 -9 8 6 11 -22 47 -31 38 -4 -4 -2 -16 5 -26 7 -12 8 -20 2 -21 -5 -1
-14 -3 -20 -4 -5 -1 -14 -3 -19 -4 -14 -2 -61 -101 -61 -128 0 -13 18 -52 40
-85 22 -34 40 -66 40 -70 0 -8 -17 -12 -35 -8 -5 1 -38 4 -73 7 -61 4 -63 3
-52 -16 6 -11 27 -37 48 -57 l37 -36 -62 4 c-41 3 -63 0 -63 -6 0 -6 26 -38
59 -71 32 -33 66 -72 76 -87 l17 -28 -28 -1 c-16 0 -63 -1 -104 -2 -70 -2 -75
-3 -82 -27 -40 -135 -48 -166 -48 -180 0 -9 21 -40 47 -68 l48 -52 108 -1 c59
-1 107 -5 107 -10 0 -9 -19 -12 -57 -9 -13 1 -23 -3 -23 -8 0 -5 -14 -12 -30
-14 -33 -5 -29 6 5 15 11 3 -5 5 -36 5 -30 -1 -60 2 -66 5 -7 4 -14 3 -18 -3
-4 -6 -10 -8 -14 -5 -5 2 -25 6 -45 9 -29 4 -38 0 -47 -16 -6 -11 -9 -28 -6
-39 3 -10 -1 -24 -9 -30 -12 -10 -12 -14 3 -24 10 -7 36 -18 58 -25 22 -7 45
-16 50 -20 6 -3 29 -6 53 -5 40 2 42 1 27 -15 -8 -9 -25 -16 -38 -14 -12 1
-22 3 -22 4 0 9 -61 8 -73 -2 -13 -11 -15 -11 -7 2 6 12 6 13 -6 2 -12 -11
-12 -14 1 -23 12 -9 12 -10 -3 -5 -10 3 -21 6 -23 6 -3 0 -2 5 2 12 4 7 3 8
-4 4 -7 -4 -12 -14 -12 -22 0 -8 -5 -12 -11 -9 -7 5 -9 -3 -7 -20 3 -23 12
-31 63 -49 52 -20 78 -22 202 -21 78 0 140 -2 137 -6 -2 -4 -26 -6 -54 -6 -28
1 -50 -1 -50 -4 0 -4 -63 -5 -141 -4 -165 2 -171 0 -162 -73 10 -80 9 -107 -4
-108 -7 -1 -18 -2 -24 -3 -6 0 -9 -17 -7 -38 3 -37 4 -38 43 -39 22 -1 74 3
115 7 145 16 166 18 235 24 39 3 86 8 105 10 19 2 89 9 155 15 66 6 138 13
160 15 22 3 130 14 240 25 430 44 492 50 535 55 56 6 331 32 425 40 l70 6 22
-48 c12 -27 38 -65 59 -85 l36 -37 -32 -40 c-18 -22 -50 -52 -71 -67 -22 -15
-38 -28 -36 -30 2 -2 34 1 71 7 37 6 71 7 75 2 4 -4 16 -30 26 -57 l18 -48 34
38 c19 22 50 63 69 92 22 33 42 52 55 52 27 0 25 -1 69 15 71 25 129 74 167
143 l36 64 51 -6 c28 -3 85 -8 126 -11 41 -3 140 -13 220 -21 80 -8 172 -17
205 -20 33 -3 116 -11 185 -19 69 -8 157 -17 195 -20 39 -3 81 -8 95 -10 14
-2 54 -7 90 -10 36 -3 81 -8 100 -10 19 -2 69 -7 110 -10 73 -6 271 -25 455
-45 50 -5 122 -12 160 -16 39 -3 73 -8 78 -11 4 -2 7 2 8 9 0 7 2 24 5 37 3
16 -4 31 -21 47 -24 22 -25 28 -20 93 5 80 -8 107 -48 92 -18 -7 -104 -8 -259
-2 -16 1 -28 4 -28 9 0 4 48 8 108 8 114 1 117 2 175 27 26 11 37 23 39 39 2
39 -2 62 -14 73 -8 7 -9 6 -4 -2 4 -8 1 -13 -8 -13 -8 0 -23 -3 -33 -6 -15 -5
-15 -4 -3 5 13 9 13 11 -2 11 -9 0 -20 -5 -23 -10 -4 -7 -12 -7 -24 0 -10 5
-22 6 -26 2 -3 -4 -39 -7 -78 -7 -53 -1 -75 3 -85 15 -8 8 -11 10 -8 4 10 -20
-21 -24 -38 -5 -9 10 -16 20 -16 23 0 10 145 -5 152 -16 4 -6 8 -6 8 -1 0 6
15 11 33 11 17 1 62 12 100 24 51 17 67 26 67 41 0 13 -5 17 -17 13 -14 -5
-15 -4 -4 4 13 10 19 57 8 69 -4 3 -28 5 -54 3 -26 -1 -58 -1 -71 -1 -13 1
-20 -4 -17 -9 3 -6 1 -10 -4 -10 -6 0 -11 5 -11 11 0 8 -6 7 -17 -2 -11 -10
-14 -10 -9 -1 5 8 -2 12 -23 12 -56 0 -32 17 27 18 55 2 58 4 104 55 26 28 48
61 48 72 0 11 -9 49 -20 83 -11 35 -20 75 -20 88 0 27 1 26 -110 29 -104 3
-110 4 -110 14 0 4 34 45 76 91 81 88 83 103 13 90 -22 -4 -42 -4 -44 1 -3 4
9 22 26 41 63 69 62 71 -32 64 -46 -4 -87 -10 -91 -12 -21 -13 -4 25 37 82 25
34 45 73 45 86 0 14 -12 49 -27 79 -25 47 -32 54 -62 57 -30 3 -33 6 -29 33
l5 29 -24 -22 c-13 -12 -21 -28 -18 -36 3 -8 0 -12 -7 -10 -6 2 -17 20 -23 38
-10 30 -13 32 -22 16 -8 -15 -12 -8 -21 40 -7 31 -12 71 -13 88 l-1 31 -9 -30
c-5 -16 -10 -64 -11 -105 -3 -80 -13 -101 -57 -115 -13 -4 -21 -3 -18 2 3 5 2
24 -3 43 l-7 35 -8 -43 c-8 -42 -8 -42 -28 -25 -20 17 -20 17 -15 -4 4 -13 1
-26 -4 -30 -6 -3 -8 -1 -5 4 4 6 -2 18 -12 27 -17 15 -17 14 -13 -14 2 -17 0
-30 -5 -30 -12 0 -60 121 -69 173 -5 32 -17 43 -20 19 0 -4 -5 -18 -11 -32
l-10 -25 -22 35 c-14 24 -21 29 -21 17 0 -32 -21 -7 -51 59 -16 35 -31 64 -33
64 -8 0 7 -89 25 -145 11 -35 15 -61 9 -63 -6 -2 -10 -12 -10 -22 0 -9 -6 -23
-14 -29 -11 -10 -18 -4 -32 28 -23 50 -37 53 -30 5 6 -33 4 -35 -15 -29 -18 6
-21 4 -16 -9 5 -14 3 -15 -13 -6 -29 15 -32 12 -15 -14 9 -13 18 -43 20 -67 3
-30 2 -38 -4 -24 -5 11 -6 25 -3 30 3 6 -3 3 -13 -5 -10 -9 -20 -11 -22 -5 -9
28 -53 88 -54 75 -1 -8 -2 -33 -3 -55 -3 -62 -17 -108 -28 -97 -5 5 -17 36
-27 68 -14 48 -22 60 -40 62 -14 2 -21 0 -17 -6 4 -6 2 -14 -4 -17 -6 -4 -8
-14 -6 -23 4 -11 -3 -21 -18 -28 -18 -9 -27 -7 -46 8 -23 19 -24 19 -31 1 -7
-20 -39 -51 -39 -38 0 4 -7 2 -16 -6 -13 -10 -17 -10 -24 0 -4 7 -6 21 -3 30
5 19 -15 21 -50 6 -24 -10 -31 -1 -17 24 9 17 8 21 -5 21 -8 0 -15 7 -15 15 0
8 -4 15 -10 15 -14 0 -12 27 3 33 10 4 10 6 0 6 -7 1 -13 8 -13 16 0 7 -8 19
-17 24 -16 9 -16 12 -3 21 8 5 19 11 23 13 9 3 -24 67 -34 67 -15 0 -35 -67
-29 -97 4 -18 6 -33 5 -33 -2 0 -16 21 -31 48 -15 26 -30 49 -33 52 -3 3 -8
16 -9 30 -5 31 -22 52 -22 26 0 -10 -12 -30 -27 -44 -16 -14 -26 -26 -23 -27
9 -1 -33 -85 -43 -85 -5 0 -5 6 2 13 6 8 8 17 4 20 -3 4 -1 7 5 7 7 0 11 13 9
33 -2 17 0 40 5 49 5 10 4 19 -2 23 -6 4 -7 11 -4 17 4 6 2 13 -3 17 -10 6
-43 74 -43 87 0 4 11 35 24 68 75 190 49 426 -67 601 -82 125 -233 232 -377
269 -77 20 -240 18 -317 -4z m-1254 -1034 c8 -9 8 -16 2 -20 -6 -4 -15 3 -21
14 -12 23 2 27 19 6z m-62 -72 c-9 -9 -28 6 -21 18 4 6 10 6 17 -1 6 -6 8 -13
4 -17z m1950 -66 c-3 -7 -5 -2 -5 12 0 14 2 19 5 13 2 -7 2 -19 0 -25z m-726
-54 c115 -58 323 -69 454 -23 56 19 76 22 103 15 17 -6 32 -13 32 -16 0 -3
-15 -13 -32 -22 -23 -12 -70 -19 -153 -22 -73 -4 -163 -16 -230 -31 -60 -14
-110 -25 -111 -25 -1 0 -1 12 0 26 1 36 -42 69 -79 60 -15 -4 -25 -10 -22 -13
4 -3 2 -13 -3 -22 -15 -30 21 -56 70 -52 39 4 23 -4 -88 -43 -91 -33 -104 -35
-117 -22 -14 14 -13 17 10 32 l25 16 -25 20 c-14 11 -23 24 -19 29 3 5 9 7 13
4 5 -2 16 4 26 15 10 12 13 20 7 20 -25 0 -10 20 28 40 22 11 40 25 40 31 0
11 29 5 71 -17z m846 -16 c-8 -18 -12 -38 -10 -45 7 -19 -14 -24 -30 -8 -14
13 -12 19 16 50 18 19 33 35 35 35 1 0 -4 -15 -11 -32z m248 -37 c-10 -17 -35
6 -35 32 l0 21 21 -21 c12 -11 18 -26 14 -32z m-290 -39 c-3 -3 -16 -6 -30 -7
-27 -1 -34 12 -10 21 8 4 12 11 8 18 -3 6 3 2 15 -8 12 -11 20 -22 17 -24z
m215 -26 c0 -5 -7 -3 -15 4 -8 7 -15 20 -15 28 0 13 3 12 15 -4 8 -10 15 -23
15 -28z m-1328 2 c12 -14 15 -24 8 -26 -14 -5 -40 17 -40 34 0 20 10 17 32 -8z
m-62 -89 c0 -6 -4 -7 -10 -4 -5 3 -10 11 -10 16 0 6 5 7 10 4 6 -3 10 -11 10
-16z m-1213 -682 c3 -4 -12 -7 -35 -7 -23 0 -42 4 -42 8 0 10 67 8 77 -1z
m3958 3 c3 -5 1 -10 -4 -10 -6 0 -11 5 -11 10 0 6 2 10 4 10 3 0 8 -4 11 -10z
m212 -96 c-3 -3 -12 -4 -19 -1 -8 3 -5 6 6 6 11 1 17 -2 13 -5z m-3991 -71
c-3 -8 -6 -17 -6 -20 0 -3 -8 1 -17 8 -11 10 -14 10 -9 2 4 -8 1 -13 -9 -13
-10 0 -13 5 -9 12 4 6 3 8 -4 4 -5 -3 -13 0 -16 6 -3 7 -3 2 0 -12 5 -24 4
-24 -10 -6 -12 15 -17 16 -21 5 -3 -9 -21 -15 -45 -15 -25 -1 -37 2 -33 9 4 6
1 7 -8 1 -8 -4 -43 -9 -79 -9 -36 0 -71 -4 -79 -9 -10 -6 -12 -5 -7 2 9 14 -3
15 -24 2 -9 -5 -19 -5 -27 2 -9 8 -13 7 -13 -2 0 -8 -3 -10 -7 -7 -7 8 25 47
39 47 5 0 7 -4 4 -8 -3 -5 1 -9 9 -9 8 0 12 4 10 8 -3 4 18 7 45 6 28 0 52 2
55 4 2 3 63 5 135 6 112 1 131 -1 126 -14z m3687 -26 c-8 -13 -32 13 -26 29 4
12 8 12 18 -3 7 -10 11 -21 8 -26z m283 -50 c1 -7 -8 -14 -20 -14 -19 -2 -19
-1 -3 8 9 6 14 16 11 22 -4 7 -3 8 1 4 5 -4 10 -13 11 -20z m38 4 c3 -5 -1
-11 -9 -14 -9 -4 -12 -1 -8 9 6 16 10 17 17 5z m-2406 -116 c1 -47 0 -90 -4
-96 -14 -23 -58 41 -67 97 -4 28 -3 30 23 26 22 -3 28 0 27 15 0 32 3 43 11
43 4 0 8 -38 10 -85z m211 -82 c-4 -22 3 -24 27 -8 14 9 28 14 32 11 8 -9 -50
-67 -62 -63 -8 3 -12 37 -7 62 2 8 11 6 10 -2z"/>
<path d="M3169 3568 c-11 -20 -23 -69 -33 -133 -4 -32 20 -50 50 -37 28 13 30
6 9 -25 -20 -29 -2 -40 24 -14 10 10 28 22 40 26 12 3 21 11 21 16 0 5 6 9 13
9 16 0 60 44 51 52 -7 7 -75 -10 -91 -24 -14 -11 -19 -2 -21 37 -3 41 -20 91
-37 105 -11 9 -16 6 -26 -12z"/>
<path d="M3823 3215 c0 -37 11 -46 21 -19 3 9 0 24 -7 35 -13 17 -14 16 -14
-16z"/>
<path d="M3427 2887 c-5 -12 11 -53 32 -87 5 -8 12 -27 16 -42 7 -38 41 -55
64 -34 27 24 42 20 35 -9 -3 -14 -4 -25 -1 -25 2 0 24 18 48 40 91 83 109 104
97 111 -14 9 -32 2 -80 -28 -46 -28 -55 -29 -63 -2 -7 22 -104 89 -128 89 -8
0 -17 -6 -20 -13z"/>
<path d="M3422 2550 c-8 -13 -9 -20 -1 -20 5 0 7 -5 3 -12 -4 -7 -3 -8 5 -4 6
4 9 11 6 16 -3 4 -1 10 5 12 5 1 6 8 2 15 -6 9 -11 7 -20 -7z"/>
<path d="M3307 2525 c-4 -8 -2 -17 3 -20 6 -4 10 3 10 14 0 25 -6 27 -13 6z"/>
<path d="M3493 2515 c-8 -9 -9 -16 -3 -20 6 -3 13 1 16 10 9 21 2 26 -13 10z"/>
<path d="M768 2493 c7 -3 16 -2 19 1 4 3 -2 6 -13 5 -11 0 -14 -3 -6 -6z"/>
<path d="M1426 2471 c-4 -6 -11 -9 -15 -7 -4 3 -8 -1 -8 -8 0 -9 11 -12 31
-10 28 3 29 2 14 -10 -23 -17 -23 -62 -2 -70 23 -9 53 21 49 46 -4 16 -2 18
10 8 16 -14 20 -24 6 -16 -5 4 -8 -2 -7 -11 2 -9 7 -18 13 -20 15 -5 12 70 -4
85 -18 18 -79 27 -87 13z"/>
<path d="M3544 2462 c-17 -11 -23 -38 -12 -53 8 -11 9 -10 4 4 -3 11 0 17 9
17 8 0 13 9 12 20 -1 11 -1 20 -2 20 0 0 -5 -4 -11 -8z"/>
<path d="M3352 2440 c-28 -26 -28 -50 -1 -84 15 -20 27 -25 47 -21 52 9 73 58
41 98 -25 32 -57 34 -87 7z"/>
<path d="M3547 2396 c-3 -8 -2 -18 3 -21 13 -8 24 15 12 27 -6 6 -11 4 -15 -6z"/>
<path d="M3515 2380 c3 -5 8 -10 11 -10 2 0 4 5 4 10 0 6 -5 10 -11 10 -5 0
-7 -4 -4 -10z"/>
</g>
</svg>
